<svg width="200" height="200" viewBox="0 0 200 200" fill="none" xmlns="http://www.w3.org/2000/svg">
<path d="M160.774 130.804C160.774 133.493 158.594 135.673 155.904 135.673H145.678C129.002 135.673 115.484 149.192 115.484 165.867V166.03C115.484 168.719 113.304 170.9 110.614 170.9H90.1603C87.4708 170.9 85.2904 168.719 85.2904 166.03V165.867C85.2904 149.192 71.7723 135.673 55.0968 135.673H44.8699C42.1804 135.673 40 133.493 40 130.804V110.35C40 107.66 42.1804 105.48 44.8699 105.48H67.1921C67.5149 105.48 67.8476 105.513 68.1634 105.58C87.079 109.564 92.5728 121.139 95.9954 137.047C97.1135 142.245 103.661 142.245 104.779 137.047C108.202 121.139 113.695 109.564 132.611 105.58C132.927 105.513 133.259 105.48 133.582 105.48H155.904C158.594 105.48 160.774 107.66 160.774 110.35V130.804Z" fill="url(#paint0_linear_613_1554)"/>
<path d="M40.0156 75.1281C40.0156 72.4386 42.1959 70.2582 44.8856 70.2582H55.1125C71.7879 70.2582 85.3061 56.7401 85.3061 40.0646V34.8699C85.3061 32.1804 87.4863 30 90.176 30H110.63C113.319 30 115.5 32.1804 115.5 34.8699V40.0646C115.5 56.7401 129.018 70.2582 145.693 70.2582H155.92C158.609 70.2582 160.79 72.4386 160.79 75.1281V95.5818C160.79 98.2714 158.609 100.452 155.92 100.452H133.598C133.275 100.452 132.942 100.418 132.627 100.352C113.711 96.368 108.217 84.7925 104.795 68.8846C103.677 63.6873 97.1292 63.6873 96.0109 68.8846C92.5884 84.7925 87.0945 96.368 68.179 100.352C67.8632 100.418 67.5306 100.452 67.2077 100.452H44.8856C42.1959 100.452 40.0156 98.2714 40.0156 95.5818V75.1281Z" fill="url(#paint1_linear_613_1554)"/>
<defs>
<linearGradient id="paint0_linear_613_1554" x1="40" y1="138.19" x2="160.774" y2="138.19" gradientUnits="userSpaceOnUse">
<stop stop-color="#685AFF"/>
<stop offset="1" stop-color="#3E3699"/>
</linearGradient>
<linearGradient id="paint1_linear_613_1554" x1="160.79" y1="65.2259" x2="40.0156" y2="65.2259" gradientUnits="userSpaceOnUse">
<stop stop-color="#685AFF"/>
<stop offset="1" stop-color="#3E3699"/>
</linearGradient>
</defs>
</svg>
